# xmcd
#
# Track frame offsets:
#	150
#	40240
#	69912
#	102240
#	114752
#	150786
#
# Disc length: 2452 seconds
#
# Revision: 1
# Processed by: cddbd v1.5.1PL2 Copyright (c) Steve Scherf et al.
# Submitted via: EasyCDDAExtractor 9.0.0.1
#
DISCID=37099206
DTITLE=GUns and Roses - Parque da Bela Vista Rock in Rio Lisboa 28-05-06 Disc 2
DYEAR=2006
DGENRE=Hard Rock
TTITLE0=November Rain
TTITLE1=You Could Be Mine
TTITLE2=Patience
TTITLE3=Robin Solo
TTITLE4=Nightrain
TTITLE5=Paradise City
EXTD=
EXTT0=
EXTT1=
EXTT2=
EXTT3=
EXTT4=
EXTT5=
PLAYORDER=
